<?xml version="1.0" encoding="UTF-8"?>
<svg id="_图层_2" data-name="图层 2" xmlns="http://www.w3.org/2000/svg" viewBox="0 0 30.47 36.7">
  <defs>
    <style>
      .cls-1 {
        fill: #8ec065;
        stroke-width: 0px;
      }
    </style>
  </defs>
  <g id="_图层_1-2" data-name="图层 1">
    <g>
      <circle class="cls-1" cx="4.23" cy="17.14" r="4.23"/>
      <path class="cls-1" d="M16.46,30.61c0-4.23,3.43-7.66,7.66-7.66.84,0,1.65.14,2.41.4,0,0,.03,0,.04,0h.11-.02s0,0,0,0l-.02-.02h-.03l-.02-.03-.04-.02L8.15,12.9s-.01,0-.02-.01c-.01,0-.03-.02-.03-.01,0,0,0,.01.03.03h.01c1.4,1.03,2.32,2.69,2.32,4.56,0,3.12-2.53,5.66-5.66,5.66-1.18,0-2.28-.36-3.18-.98-.02,0-.03-.02-.05-.04-.04-.03-.05-.04-.06-.04s.05.05.05.05l.05.04,17.24,13.98.04.03h0s-.03-.02-.04-.04c-1.48-1.4-2.4-3.37-2.4-5.56v.04Z"/>
      <circle class="cls-1" cx="24.6" cy="30.83" r="5.87"/>
      <path class="cls-1" d="M23.63,7.37c-1.73-.26-3.12-1.67-3.35-3.4-.19-1.43.05-2.54,1.02-3.38,0,0,0,0,.02-.01.02-.01.03-.03.05-.04.03-.02.04-.03.03-.04l-.05.02-.05.03-.04.02L3.33,11.01s-.03.06.07.01c.38-.19,1.49-.35,2.89-.11,1.68.29,9.26,4.69,10.13,5.2.05.03.11.02.15-.02l9.77-9.15.04-.04s0-.02,0-.02h-.03s-.03.03-.04.04c-.81.6-1.55.62-2.67.45h-.01Z"/>
      <circle class="cls-1" cx="24.96" cy="2.81" r="2.81"/>
    </g>
  </g>
</svg>